<svg version="1.1" xmlns="http://www.w3.org/2000/svg" xmlns:xlink="http://www.w3.org/1999/xlink" width="2131" height="1911"><defs/><g><g transform="translate(2,-310) scale(1,1)"><rect fill="#C0C0C0" stroke="none" x="119" y="703" width="153" height="60" opacity="0.2"/></g><g transform="translate(2,-310) scale(1,1)"><rect fill="#ffffff" stroke="none" x="112" y="696" width="153" height="60"/></g><g transform="translate(2,-310) scale(1,1)"><path fill="none" stroke="#c59bd3" d="M 112 696 L 265 696 L 265 756 L 112 756 L 112 696 Z Z" stroke-miterlimit="10"/></g><g transform="translate(2,-310) scale(1,1)"><path fill="none" stroke="#c59bd3" d="M 112 734 L 265 734" stroke-miterlimit="10"/></g><g transform="translate(2,-310) scale(1,1)"><g><path fill="none" stroke="none"/><text fill="#a86bb5" stroke="none" font-family="Arial" font-size="13px" font-style="normal" font-weight="normal" text-decoration="none" x="156.5" y="713.5">«interface»</text></g></g><g transform="translate(2,-310) scale(1,1)"><g><path fill="none" stroke="none"/><text fill="#a86bb5" stroke="none" font-family="Arial" font-size="13px" font-style="normal" font-weight="bold" text-decoration="none" x="120.5" y="728.5">SDWebImageOperation</text></g></g><g transform="translate(2,-310) scale(1,1)"><g><path fill="none" stroke="none"/><text fill="#a86bb5" stroke="none" font-family="Arial" font-size="13px" font-style="normal" font-weight="normal" text-decoration="none" x="117" y="751.5">+cancel()</text></g></g><g transform="translate(2,-310) scale(1,1)"><rect fill="#C0C0C0" stroke="none" x="87" y="327" width="217" height="72" opacity="0.2"/></g><g transform="translate(2,-310) scale(1,1)"><rect fill="#ffffff" stroke="none" x="80" y="320" width="217" height="72"/></g><g transform="translate(2,-310) scale(1,1)"><path fill="none" stroke="#c59bd3" d="M 80 320 L 297 320 L 297 392 L 80 392 L 80 320 Z Z" stroke-miterlimit="10"/></g><g transform="translate(2,-310) scale(1,1)"><path fill="none" stroke="#c59bd3" d="M 80 345 L 297 345" stroke-miterlimit="10"/></g><g transform="translate(2,-310) scale(1,1)"><path fill="none" stroke="#c59bd3" d="M 80 383 L 297 383" stroke-miterlimit="10"/></g><g transform="translate(2,-310) scale(1,1)"><g><path fill="none" stroke="none"/><text fill="#a86bb5" stroke="none" font-family="Arial" font-size="13px" font-style="normal" font-weight="bold" text-decoration="none" x="102.5" y="339.5">SDWebImageDownloadToken</text></g></g><g transform="translate(2,-310) scale(1,1)"><g><path fill="none" stroke="none"/><text fill="#a86bb5" stroke="none" font-family="Arial" font-size="13px" font-style="normal" font-weight="normal" text-decoration="none" x="85" y="362.5">+NSURL *url</text></g></g><g transform="translate(2,-310) scale(1,1)"><g><path fill="none" stroke="none"/><text fill="#a86bb5" stroke="none" font-family="Arial" font-size="13px" font-style="normal" font-weight="normal" text-decoration="none" x="85" y="377.5">+id downloadOperationCancelToken</text></g></g><g transform="translate(2,-310) scale(1,1)"><rect fill="#C0C0C0" stroke="none" x="1223" y="1463" width="903" height="355" opacity="0.2"/></g><g transform="translate(2,-310) scale(1,1)"><rect fill="#ffffff" stroke="none" x="1216" y="1456" width="903" height="355"/></g><g transform="translate(2,-310) scale(1,1)"><path fill="none" stroke="#c59bd3" d="M 1216 1456 L 2119 1456 L 2119 1811 L 1216 1811 L 1216 1456 Z Z" stroke-miterlimit="10"/></g><g transform="translate(2,-310) scale(1,1)"><path fill="none" stroke="#c59bd3" d="M 1216 1481 L 2119 1481" stroke-miterlimit="10"/></g><g transform="translate(2,-310) scale(1,1)"><path fill="none" stroke="#c59bd3" d="M 1216 1699 L 2119 1699" stroke-miterlimit="10"/></g><g transform="translate(2,-310) scale(1,1)"><g><path fill="none" stroke="none"/><text fill="#a86bb5" stroke="none" font-family="Arial" font-size="13px" font-style="normal" font-weight="bold" text-decoration="none" x="1594" y="1475.5">SDWebImageDownloader</text></g></g><g transform="translate(2,-310) scale(1,1)"><g><path fill="none" stroke="none"/><text fill="#a86bb5" stroke="none" font-family="Arial" font-size="13px" font-style="normal" font-weight="normal" text-decoration="none" x="1221" y="1498.5">+shouldDecompressImages</text></g></g><g transform="translate(2,-310) scale(1,1)"><g><path fill="none" stroke="none"/><text fill="#a86bb5" stroke="none" font-family="Arial" font-size="13px" font-style="normal" font-weight="normal" text-decoration="none" x="1221" y="1513.5">+NSInteger maxConcurrentDownloads</text></g></g><g transform="translate(2,-310) scale(1,1)"><g><path fill="none" stroke="none"/><text fill="#a86bb5" stroke="none" font-family="Arial" font-size="13px" font-style="normal" font-weight="normal" text-decoration="none" x="1221" y="1528.5">+NSUInteger currentDownloadCount</text></g></g><g transform="translate(2,-310) scale(1,1)"><g><path fill="none" stroke="none"/><text fill="#a86bb5" stroke="none" font-family="Arial" font-size="13px" font-style="normal" font-weight="normal" text-decoration="none" x="1221" y="1543.5">+NSTimeInterval downloadTimeout</text></g></g><g transform="translate(2,-310) scale(1,1)"><g><path fill="none" stroke="none"/><text fill="#a86bb5" stroke="none" font-family="Arial" font-size="13px" font-style="normal" font-weight="normal" text-decoration="none" x="1221" y="1558.5">+SDWebImageDownloaderExecutionOrder executionOrder</text></g></g><g transform="translate(2,-310) scale(1,1)"><g><path fill="none" stroke="none"/><text fill="#a86bb5" stroke="none" font-family="Arial" font-size="13px" font-style="normal" font-weight="normal" text-decoration="none" x="1221" y="1573.5">+NSURLCredential *urlCredential</text></g></g><g transform="translate(2,-310) scale(1,1)"><g><path fill="none" stroke="none"/><text fill="#a86bb5" stroke="none" font-family="Arial" font-size="13px" font-style="normal" font-weight="normal" text-decoration="none" x="1221" y="1588.5">+NSString *username</text></g></g><g transform="translate(2,-310) scale(1,1)"><g><path fill="none" stroke="none"/><text fill="#a86bb5" stroke="none" font-family="Arial" font-size="13px" font-style="normal" font-weight="normal" text-decoration="none" x="1221" y="1603.5">+NSString *password</text></g></g><g transform="translate(2,-310) scale(1,1)"><g><path fill="none" stroke="none"/><text fill="#a86bb5" stroke="none" font-family="Arial" font-size="13px" font-style="normal" font-weight="normal" text-decoration="none" x="1221" y="1618.5">+SDWebImageDownloaderHeadersFilterBlock headersFilter</text></g></g><g transform="translate(2,-310) scale(1,1)"><g><path fill="none" stroke="none"/><text fill="#a86bb5" stroke="none" font-family="Arial" font-size="13px" font-style="normal" font-weight="normal" text-decoration="none" x="1221" y="1633.5">+NSURLSession *session</text></g></g><g transform="translate(2,-310) scale(1,1)"><g><path fill="none" stroke="none"/><text fill="#a86bb5" stroke="none" font-family="Arial" font-size="13px" font-style="normal" font-weight="normal" text-decoration="none" x="1221" y="1648.5">-NSOperationQueue *downloadQueue</text></g></g><g transform="translate(2,-310) scale(1,1)"><g><path fill="none" stroke="none"/><text fill="#a86bb5" stroke="none" font-family="Arial" font-size="13px" font-style="normal" font-weight="normal" text-decoration="none" x="1221" y="1663.5">-NSMutableDictionary NSURL * SDWebImageDownloaderOperation *   *URLOperations</text></g></g><g transform="translate(2,-310) scale(1,1)"><g><path fill="none" stroke="none"/><text fill="#a86bb5" stroke="none" font-family="Arial" font-size="13px" font-style="normal" font-weight="normal" text-decoration="none" x="1221" y="1678.5">-SDHTTPHeadersMutableDictionary *HTTPHeaders</text></g></g><g transform="translate(2,-310) scale(1,1)"><g><path fill="none" stroke="none"/><text fill="#a86bb5" stroke="none" font-family="Arial" font-size="13px" font-style="normal" font-weight="normal" text-decoration="none" x="1221" y="1693.5">-dispatch_queue_t barrierQueue</text></g></g><g transform="translate(2,-310) scale(1,1)"><g><path fill="none" stroke="none"/><text fill="#a86bb5" stroke="none" font-family="Arial" font-size="13px" font-style="normal" font-weight="normal" text-decoration="none" x="1221" y="1716.5">+initWithSessionConfiguration(nullable NSURLSessionConfiguration)</text></g></g><g transform="translate(2,-310) scale(1,1)"><g><path fill="none" stroke="none"/><text fill="#a86bb5" stroke="none" font-family="Arial" font-size="13px" font-style="normal" font-weight="normal" text-decoration="none" x="1221" y="1731.5">+setValue(nullable NSString value forHTTPHeaderField)</text></g></g><g transform="translate(2,-310) scale(1,1)"><g><path fill="none" stroke="none"/><text fill="#a86bb5" stroke="none" font-family="Arial" font-size="13px" font-style="normal" font-weight="normal" text-decoration="none" x="1221" y="1746.5">+valueForHTTPHeaderField()</text></g></g><g transform="translate(2,-310) scale(1,1)"><g><path fill="none" stroke="none"/><text fill="#a86bb5" stroke="none" font-family="Arial" font-size="13px" font-style="normal" font-weight="normal" text-decoration="none" x="1221" y="1761.5">+downloadImageWithURL(NSURL , SDWebImageDownloaderOptions, SDWebImageDownloaderProgressBlock, SDWebImageDownloaderCompletedBlock)</text></g></g><g transform="translate(2,-310) scale(1,1)"><g><path fill="none" stroke="none"/><text fill="#a86bb5" stroke="none" font-family="Arial" font-size="13px" font-style="normal" font-weight="normal" text-decoration="none" x="1221" y="1776.5">+cancel(SDWebImageDownloadToken token)</text></g></g><g transform="translate(2,-310) scale(1,1)"><g><path fill="none" stroke="none"/><text fill="#a86bb5" stroke="none" font-family="Arial" font-size="13px" font-style="normal" font-weight="normal" text-decoration="none" x="1221" y="1791.5">+setSuspended()</text></g></g><g transform="translate(2,-310) scale(1,1)"><g><path fill="none" stroke="none"/><text fill="#a86bb5" stroke="none" font-family="Arial" font-size="13px" font-style="normal" font-weight="normal" text-decoration="none" x="1221" y="1806.5">+cancelAllDownloads()</text></g></g><g transform="translate(2,-310) scale(1,1)"><rect fill="#C0C0C0" stroke="none" x="375" y="591" width="768" height="143" opacity="0.2"/></g><g transform="translate(2,-310) scale(1,1)"><rect fill="#ffffff" stroke="none" x="368" y="584" width="768" height="143"/></g><g transform="translate(2,-310) scale(1,1)"><path fill="none" stroke="#c59bd3" d="M 368 584 L 1136 584 L 1136 727 L 368 727 L 368 584 Z Z" stroke-miterlimit="10"/></g><g transform="translate(2,-310) scale(1,1)"><path fill="none" stroke="#c59bd3" d="M 368 622 L 1136 622" stroke-miterlimit="10"/></g><g transform="translate(2,-310) scale(1,1)"><path fill="none" stroke="#c59bd3" d="M 368 645 L 1136 645" stroke-miterlimit="10"/></g><g transform="translate(2,-310) scale(1,1)"><g><path fill="none" stroke="none"/><text fill="#a86bb5" stroke="none" font-family="Arial" font-size="13px" font-style="normal" font-weight="normal" text-decoration="none" x="720" y="601.5">«interface»</text></g></g><g transform="translate(2,-310) scale(1,1)"><g><path fill="none" stroke="none"/><text fill="#a86bb5" stroke="none" font-family="Arial" font-size="13px" font-style="normal" font-weight="bold" text-decoration="none" x="625" y="616.5">SDWebImageDownloaderOperationInterface</text></g></g><g transform="translate(2,-310) scale(1,1)"><g><path fill="none" stroke="none"/><text fill="#a86bb5" stroke="none" font-family="Arial" font-size="13px" font-style="normal" font-weight="normal" text-decoration="none" x="373" y="639.5">+Attribute1</text></g></g><g transform="translate(2,-310) scale(1,1)"><g><path fill="none" stroke="none"/><text fill="#a86bb5" stroke="none" font-family="Arial" font-size="13px" font-style="normal" font-weight="normal" text-decoration="none" x="373" y="662.5">+initWithRequest(NSURLrequest, NSURLSEssion, SDWebImageDownloaderOptions)</text></g></g><g transform="translate(2,-310) scale(1,1)"><g><path fill="none" stroke="none"/><text fill="#a86bb5" stroke="none" font-family="Arial" font-size="13px" font-style="normal" font-weight="normal" text-decoration="none" x="373" y="677.5">+addHandlersForProgress(SDWebImageDownloaderProgressBlock progress, SDWebImageDownloaderCompletedBlock completed)</text></g></g><g transform="translate(2,-310) scale(1,1)"><g><path fill="none" stroke="none"/><text fill="#a86bb5" stroke="none" font-family="Arial" font-size="13px" font-style="normal" font-weight="normal" text-decoration="none" x="373" y="692.5">+shouldDecompressImages()</text></g></g><g transform="translate(2,-310) scale(1,1)"><g><path fill="none" stroke="none"/><text fill="#a86bb5" stroke="none" font-family="Arial" font-size="13px" font-style="normal" font-weight="normal" text-decoration="none" x="373" y="707.5">+setShouldDecompressImages()</text></g></g><g transform="translate(2,-310) scale(1,1)"><g><path fill="none" stroke="none"/><text fill="#a86bb5" stroke="none" font-family="Arial" font-size="13px" font-style="normal" font-weight="normal" text-decoration="none" x="373" y="722.5">+credential(): NSURLCredential</text></g></g><g transform="translate(2,-310) scale(1,1)"><rect fill="#C0C0C0" stroke="none" x="319" y="1175" width="842" height="280" opacity="0.2"/></g><g transform="translate(2,-310) scale(1,1)"><rect fill="#ffffff" stroke="none" x="312" y="1168" width="842" height="280"/></g><g transform="translate(2,-310) scale(1,1)"><path fill="none" stroke="#c59bd3" d="M 312 1168 L 1154 1168 L 1154 1448 L 312 1448 L 312 1168 Z Z" stroke-miterlimit="10"/></g><g transform="translate(2,-310) scale(1,1)"><path fill="none" stroke="#c59bd3" d="M 312 1193 L 1154 1193" stroke-miterlimit="10"/></g><g transform="translate(2,-310) scale(1,1)"><path fill="none" stroke="#c59bd3" d="M 312 1396 L 1154 1396" stroke-miterlimit="10"/></g><g transform="translate(2,-310) scale(1,1)"><g><path fill="none" stroke="none"/><text fill="#a86bb5" stroke="none" font-family="Arial" font-size="13px" font-style="normal" font-weight="bold" text-decoration="none" x="631.5" y="1187.5">SDWebImageDownloaderOperation</text></g></g><g transform="translate(2,-310) scale(1,1)"><g><path fill="none" stroke="none"/><text fill="#a86bb5" stroke="none" font-family="Arial" font-size="13px" font-style="normal" font-weight="normal" text-decoration="none" x="317" y="1210.5">+NSURLRequest *request</text></g></g><g transform="translate(2,-310) scale(1,1)"><g><path fill="none" stroke="none"/><text fill="#a86bb5" stroke="none" font-family="Arial" font-size="13px" font-style="normal" font-weight="normal" text-decoration="none" x="317" y="1225.5">+NSURLSessionTask *dataTask</text></g></g><g transform="translate(2,-310) scale(1,1)"><g><path fill="none" stroke="none"/><text fill="#a86bb5" stroke="none" font-family="Arial" font-size="13px" font-style="normal" font-weight="normal" text-decoration="none" x="317" y="1240.5">+BOOL shouldDecompressImages</text></g></g><g transform="translate(2,-310) scale(1,1)"><g><path fill="none" stroke="none"/><text fill="#a86bb5" stroke="none" font-family="Arial" font-size="13px" font-style="normal" font-weight="normal" text-decoration="none" x="317" y="1255.5">+NSURLCredential *credential</text></g></g><g transform="translate(2,-310) scale(1,1)"><g><path fill="none" stroke="none"/><text fill="#a86bb5" stroke="none" font-family="Arial" font-size="13px" font-style="normal" font-weight="normal" text-decoration="none" x="317" y="1270.5">+SDWebImageDownloaderOptions options</text></g></g><g transform="translate(2,-310) scale(1,1)"><g><path fill="none" stroke="none"/><text fill="#a86bb5" stroke="none" font-family="Arial" font-size="13px" font-style="normal" font-weight="normal" text-decoration="none" x="317" y="1285.5">+NSInteger expectedSize</text></g></g><g transform="translate(2,-310) scale(1,1)"><g><path fill="none" stroke="none"/><text fill="#a86bb5" stroke="none" font-family="Arial" font-size="13px" font-style="normal" font-weight="normal" text-decoration="none" x="317" y="1300.5">+NSURLResponse *response</text></g></g><g transform="translate(2,-310) scale(1,1)"><g><path fill="none" stroke="none"/><text fill="#a86bb5" stroke="none" font-family="Arial" font-size="13px" font-style="normal" font-weight="normal" text-decoration="none" x="317" y="1315.5">-NSMutableArray SDCallbacksDictionary * *callbackBlocks</text></g></g><g transform="translate(2,-310) scale(1,1)"><g><path fill="none" stroke="none"/><text fill="#a86bb5" stroke="none" font-family="Arial" font-size="13px" font-style="normal" font-weight="normal" text-decoration="none" x="317" y="1330.5">-isExecuting</text></g></g><g transform="translate(2,-310) scale(1,1)"><g><path fill="none" stroke="none"/><text fill="#a86bb5" stroke="none" font-family="Arial" font-size="13px" font-style="normal" font-weight="normal" text-decoration="none" x="317" y="1345.5">-isFinished</text></g></g><g transform="translate(2,-310) scale(1,1)"><g><path fill="none" stroke="none"/><text fill="#a86bb5" stroke="none" font-family="Arial" font-size="13px" font-style="normal" font-weight="normal" text-decoration="none" x="317" y="1360.5">-NSMutableData *imageData</text></g></g><g transform="translate(2,-310) scale(1,1)"><g><path fill="none" stroke="none"/><text fill="#a86bb5" stroke="none" font-family="Arial" font-size="13px" font-style="normal" font-weight="normal" text-decoration="none" x="317" y="1375.5">-NSURLSession *ownedSession</text></g></g><g transform="translate(2,-310) scale(1,1)"><g><path fill="none" stroke="none"/><text fill="#a86bb5" stroke="none" font-family="Arial" font-size="13px" font-style="normal" font-weight="normal" text-decoration="none" x="317" y="1390.5">-dispatch_queue_t barrierQueue</text></g></g><g transform="translate(2,-310) scale(1,1)"><g><path fill="none" stroke="none"/><text fill="#a86bb5" stroke="none" font-family="Arial" font-size="13px" font-style="normal" font-weight="normal" text-decoration="none" x="317" y="1413.5">+initWithRequest(NSURLRequest, inSession NSURlSession, option SDWebImageDownloaderOptions)</text></g></g><g transform="translate(2,-310) scale(1,1)"><g><path fill="none" stroke="none"/><text fill="#a86bb5" stroke="none" font-family="Arial" font-size="13px" font-style="normal" font-weight="normal" text-decoration="none" x="317" y="1428.5">+addHandlersForProgress(progressBlock SDWebImageDownloaderProgressBlock , completedBlock SDWebImageDownloaderCompletedBlock )</text></g></g><g transform="translate(2,-310) scale(1,1)"><g><path fill="none" stroke="none"/><text fill="#a86bb5" stroke="none" font-family="Arial" font-size="13px" font-style="normal" font-weight="normal" text-decoration="none" x="317" y="1443.5">+cancel(token)</text></g></g><g transform="translate(2,-310) scale(1,1)"><path fill="none" stroke="#c59bd3" d="M 563 1168 L 563 727" stroke-miterlimit="10" stroke-dasharray="3"/></g><g transform="translate(2,-310) scale(1,1)"><path fill="#FFFFFF" stroke="none" d="M 571.419035512032 747.3253497152483 L 563 727 L 554.580964487968 747.3253497152483"/></g><g transform="translate(2,-310) scale(1,1)"><path fill="none" stroke="#c59bd3" d="M 571.419035512032 747.3253497152483 L 563 727 L 554.580964487968 747.3253497152483 L 571.419035512032 747.3253497152483" stroke-miterlimit="10"/></g><g transform="translate(2,-310) scale(1,1)"><g><path fill="none" stroke="none"/><text fill="#a86bb5" stroke="none" font-family="Arial" font-size="13px" font-style="normal" font-weight="normal" text-decoration="none" x="531" y="953">+实现</text></g></g><g transform="translate(2,-310) scale(1,1)"><path fill="none" stroke="#c59bd3" d="M 312 1263 L 213 1263 M 213 1263 A 8 8 0 0 1 205 1255 L 205 756" stroke-miterlimit="10" stroke-dasharray="3"/></g><g transform="translate(2,-310) scale(1,1)"><path fill="#FFFFFF" stroke="none" d="M 213.41903551203197 776.3253497152483 L 205 756 L 196.58096448796803 776.3253497152483"/></g><g transform="translate(2,-310) scale(1,1)"><path fill="none" stroke="#c59bd3" d="M 213.41903551203197 776.3253497152483 L 205 756 L 196.58096448796803 776.3253497152483 L 213.41903551203197 776.3253497152483" stroke-miterlimit="10"/></g><g transform="translate(2,-310) scale(1,1)"><g><path fill="none" stroke="none"/><text fill="#a86bb5" stroke="none" font-family="Arial" font-size="13px" font-style="normal" font-weight="normal" text-decoration="none" x="173" y="1269">+实现</text></g></g><g transform="translate(2,-310) scale(1,1)"><rect fill="#C0C0C0" stroke="none" x="607" y="815" width="185" height="48" opacity="0.2"/></g><g transform="translate(2,-310) scale(1,1)"><rect fill="#ffffff" stroke="none" x="600" y="808" width="185" height="48"/></g><g transform="translate(2,-310) scale(1,1)"><path fill="none" stroke="#c59bd3" d="M 600 808 L 785 808 L 785 856 L 600 856 L 600 808 Z Z" stroke-miterlimit="10"/></g><g transform="translate(2,-310) scale(1,1)"><g><path fill="none" stroke="none"/><text fill="#a86bb5" stroke="none" font-family="Arial" font-size="13px" font-style="normal" font-weight="normal" text-decoration="none" x="660.5" y="825.5">«interface»</text></g></g><g transform="translate(2,-310) scale(1,1)"><g><path fill="none" stroke="none"/><text fill="#a86bb5" stroke="none" font-family="Arial" font-size="13px" font-style="normal" font-weight="bold" text-decoration="none" x="607.5" y="840.5">NSURLSessionTaskDelegate</text></g></g><g transform="translate(2,-310) scale(1,1)"><rect fill="#C0C0C0" stroke="none" x="847" y="767" width="183" height="48" opacity="0.2"/></g><g transform="translate(2,-310) scale(1,1)"><rect fill="#ffffff" stroke="none" x="840" y="760" width="183" height="48"/></g><g transform="translate(2,-310) scale(1,1)"><path fill="none" stroke="#c59bd3" d="M 840 760 L 1023 760 L 1023 808 L 840 808 L 840 760 Z Z" stroke-miterlimit="10"/></g><g transform="translate(2,-310) scale(1,1)"><g><path fill="none" stroke="none"/><text fill="#a86bb5" stroke="none" font-family="Arial" font-size="13px" font-style="normal" font-weight="normal" text-decoration="none" x="899.5" y="777.5">«interface»</text></g></g><g transform="translate(2,-310) scale(1,1)"><g><path fill="none" stroke="none"/><text fill="#a86bb5" stroke="none" font-family="Arial" font-size="13px" font-style="normal" font-weight="bold" text-decoration="none" x="847.5" y="792.5">NSURLSessionDataDelegate</text></g></g><g transform="translate(2,-310) scale(1,1)"><path fill="none" stroke="#c59bd3" d="M 692 1168 L 692 856" stroke-miterlimit="10" stroke-dasharray="3"/></g><g transform="translate(2,-310) scale(1,1)"><path fill="#FFFFFF" stroke="none" d="M 700.419035512032 876.3253497152483 L 692 856 L 683.580964487968 876.3253497152483"/></g><g transform="translate(2,-310) scale(1,1)"><path fill="none" stroke="#c59bd3" d="M 700.419035512032 876.3253497152483 L 692 856 L 683.580964487968 876.3253497152483 L 700.419035512032 876.3253497152483" stroke-miterlimit="10"/></g><g transform="translate(2,-310) scale(1,1)"><g><path fill="none" stroke="none"/><text fill="#a86bb5" stroke="none" font-family="Arial" font-size="13px" font-style="normal" font-weight="normal" text-decoration="none" x="660" y="1018">+实现</text></g></g><g transform="translate(2,-310) scale(1,1)"><path fill="none" stroke="#c59bd3" d="M 931 1168 L 931 808" stroke-miterlimit="10" stroke-dasharray="3"/></g><g transform="translate(2,-310) scale(1,1)"><path fill="#FFFFFF" stroke="none" d="M 939.419035512032 828.3253497152483 L 931 808 L 922.580964487968 828.3253497152483"/></g><g transform="translate(2,-310) scale(1,1)"><path fill="none" stroke="#c59bd3" d="M 939.419035512032 828.3253497152483 L 931 808 L 922.580964487968 828.3253497152483 L 939.419035512032 828.3253497152483" stroke-miterlimit="10"/></g><g transform="translate(2,-310) scale(1,1)"><g><path fill="none" stroke="none"/><text fill="#a86bb5" stroke="none" font-family="Arial" font-size="13px" font-style="normal" font-weight="normal" text-decoration="none" x="899" y="994">+实现</text></g></g><g transform="translate(2,-310) scale(1,1)"><rect fill="#C0C0C0" stroke="none" x="335" y="1015" width="88" height="44" opacity="0.2"/></g><g transform="translate(2,-310) scale(1,1)"><rect fill="#ffffff" stroke="none" x="328" y="1008" width="88" height="44"/></g><g transform="translate(2,-310) scale(1,1)"><path fill="none" stroke="#c59bd3" d="M 328 1008 L 416 1008 L 416 1052 L 328 1052 L 328 1008 Z Z" stroke-miterlimit="10"/></g><g transform="translate(2,-310) scale(1,1)"><path fill="none" stroke="#c59bd3" d="M 328 1033 L 416 1033" stroke-miterlimit="10"/></g><g transform="translate(2,-310) scale(1,1)"><path fill="none" stroke="#c59bd3" d="M 328 1043 L 416 1043" stroke-miterlimit="10"/></g><g transform="translate(2,-310) scale(1,1)"><g><path fill="none" stroke="none"/><text fill="#a86bb5" stroke="none" font-family="Arial" font-size="13px" font-style="normal" font-weight="bold" text-decoration="none" x="335" y="1027.5">NSOperation</text></g></g><g transform="translate(2,-310) scale(1,1)"><path fill="none" stroke="#c59bd3" d="M 389 1168 L 389 1052" stroke-miterlimit="10"/></g><g transform="translate(2,-310) scale(1,1)"><path fill="#FFFFFF" stroke="none" d="M 397.419035512032 1072.3253497152482 L 389 1052 L 380.580964487968 1072.3253497152482"/></g><g transform="translate(2,-310) scale(1,1)"><path fill="none" stroke="#c59bd3" d="M 397.419035512032 1072.3253497152482 L 389 1052 L 380.580964487968 1072.3253497152482 L 397.419035512032 1072.3253497152482" stroke-miterlimit="10"/></g><g transform="translate(2,-310) scale(1,1)"><g><path fill="none" stroke="none"/><text fill="#a86bb5" stroke="none" font-family="Arial" font-size="13px" font-style="normal" font-weight="normal" text-decoration="none" x="357" y="1116">+继承</text></g></g><g transform="translate(2,-310) scale(1,1)"><rect fill="#C0C0C0" stroke="none" x="743" y="1511" width="336" height="145" opacity="0.2"/></g><g transform="translate(2,-310) scale(1,1)"><rect fill="#ffffff" stroke="none" x="736" y="1504" width="336" height="145"/></g><g transform="translate(2,-310) scale(1,1)"><path fill="none" stroke="#c59bd3" d="M 736 1504 L 1072 1504 L 1072 1649 L 736 1649 L 736 1504 Z Z" stroke-miterlimit="10"/></g><g transform="translate(2,-310) scale(1,1)"><path fill="none" stroke="#c59bd3" d="M 736 1529 L 1072 1529" stroke-miterlimit="10"/></g><g transform="translate(2,-310) scale(1,1)"><path fill="none" stroke="#c59bd3" d="M 736 1582 L 1072 1582" stroke-miterlimit="10"/></g><g transform="translate(2,-310) scale(1,1)"><g><path fill="none" stroke="none"/><text fill="#a86bb5" stroke="none" font-family="Arial" font-size="13px" font-style="normal" font-weight="bold" text-decoration="none" x="858.5" y="1523.5">SDImageCache</text></g></g><g transform="translate(2,-310) scale(1,1)"><g><path fill="none" stroke="none"/><text fill="#a86bb5" stroke="none" font-family="Arial" font-size="13px" font-style="normal" font-weight="normal" text-decoration="none" x="741" y="1546.5">+SDImageCacheConfig *config</text></g></g><g transform="translate(2,-310) scale(1,1)"><g><path fill="none" stroke="none"/><text fill="#a86bb5" stroke="none" font-family="Arial" font-size="13px" font-style="normal" font-weight="normal" text-decoration="none" x="741" y="1561.5">+NSUInteger maxMemoryCost</text></g></g><g transform="translate(2,-310) scale(1,1)"><g><path fill="none" stroke="none"/><text fill="#a86bb5" stroke="none" font-family="Arial" font-size="13px" font-style="normal" font-weight="normal" text-decoration="none" x="741" y="1576.5">+NSUInteger maxMemoryCountLimit</text></g></g><g transform="translate(2,-310) scale(1,1)"><g><path fill="none" stroke="none"/><text fill="#a86bb5" stroke="none" font-family="Arial" font-size="13px" font-style="normal" font-weight="normal" text-decoration="none" x="741" y="1599.5">+initWithNamespace()</text></g></g><g transform="translate(2,-310) scale(1,1)"><g><path fill="none" stroke="none"/><text fill="#a86bb5" stroke="none" font-family="Arial" font-size="13px" font-style="normal" font-weight="normal" text-decoration="none" x="741" y="1614.5">+storeImage(image, key, SDWebImageNoParamsBlock)</text></g></g><g transform="translate(2,-310) scale(1,1)"><g><path fill="none" stroke="none"/><text fill="#a86bb5" stroke="none" font-family="Arial" font-size="13px" font-style="normal" font-weight="normal" text-decoration="none" x="741" y="1629.5">+imageFromMemoryCacheForKey()</text></g></g><g transform="translate(2,-310) scale(1,1)"><g><path fill="none" stroke="none"/><text fill="#a86bb5" stroke="none" font-family="Arial" font-size="13px" font-style="normal" font-weight="normal" text-decoration="none" x="741" y="1644.5">+imageFromDiskCacheForKey()</text></g></g><g transform="translate(2,-310) scale(1,1)"><rect fill="#C0C0C0" stroke="none" x="127" y="1535" width="233" height="87" opacity="0.2"/></g><g transform="translate(2,-310) scale(1,1)"><rect fill="#ffffff" stroke="none" x="120" y="1528" width="233" height="87"/></g><g transform="translate(2,-310) scale(1,1)"><path fill="none" stroke="#c59bd3" d="M 120 1528 L 353 1528 L 353 1615 L 120 1615 L 120 1528 Z Z" stroke-miterlimit="10"/></g><g transform="translate(2,-310) scale(1,1)"><path fill="none" stroke="#c59bd3" d="M 120 1553 L 353 1553" stroke-miterlimit="10"/></g><g transform="translate(2,-310) scale(1,1)"><path fill="none" stroke="#c59bd3" d="M 120 1606 L 353 1606" stroke-miterlimit="10"/></g><g transform="translate(2,-310) scale(1,1)"><g><path fill="none" stroke="none"/><text fill="#a86bb5" stroke="none" font-family="Arial" font-size="13px" font-style="normal" font-weight="bold" text-decoration="none" x="172.5" y="1547.5">SDImageCacheConfig</text></g></g><g transform="translate(2,-310) scale(1,1)"><g><path fill="none" stroke="none"/><text fill="#a86bb5" stroke="none" font-family="Arial" font-size="13px" font-style="normal" font-weight="normal" text-decoration="none" x="125" y="1570.5">+NSInteger maxCacheAge</text></g></g><g transform="translate(2,-310) scale(1,1)"><g><path fill="none" stroke="none"/><text fill="#a86bb5" stroke="none" font-family="Arial" font-size="13px" font-style="normal" font-weight="normal" text-decoration="none" x="125" y="1585.5">+NSUInteger maxCacheSize</text></g></g><g transform="translate(2,-310) scale(1,1)"><g><path fill="none" stroke="none"/><text fill="#a86bb5" stroke="none" font-family="Arial" font-size="13px" font-style="normal" font-weight="normal" text-decoration="none" x="125" y="1600.5">+BOOL shouldCacheImagesInMemory</text></g></g><g transform="translate(2,-310) scale(1,1)"><path fill="none" stroke="#c59bd3" d="M 736 1558 L 353 1558" stroke-miterlimit="10" stroke-dasharray="3"/></g><g transform="translate(2,-310) scale(1,1)"><path fill="none" stroke="#c59bd3" d="M 363.16267485762415 1553.7904822439841 L 353 1558 L 363.16267485762415 1562.2095177560159" stroke-miterlimit="10"/></g><g transform="translate(2,-310) scale(1,1)"><g><path fill="none" stroke="none"/><text fill="#a86bb5" stroke="none" font-family="Arial" font-size="13px" font-style="normal" font-weight="normal" text-decoration="none" x="526" y="1580">+依赖</text></g></g><g transform="translate(2,-310) scale(1,1)"><rect fill="#C0C0C0" stroke="none" x="95" y="1751" width="537" height="86" opacity="0.2"/></g><g transform="translate(2,-310) scale(1,1)"><rect fill="#ffffff" stroke="none" x="88" y="1744" width="537" height="86"/></g><g transform="translate(2,-310) scale(1,1)"><path fill="none" stroke="#c59bd3" d="M 88 1744 L 625 1744 L 625 1830 L 88 1830 L 88 1744 Z Z" stroke-miterlimit="10"/></g><g transform="translate(2,-310) scale(1,1)"><path fill="none" stroke="#c59bd3" d="M 88 1782 L 625 1782" stroke-miterlimit="10"/></g><g transform="translate(2,-310) scale(1,1)"><g><path fill="none" stroke="none"/><text fill="#a86bb5" stroke="none" font-family="Arial" font-size="13px" font-style="normal" font-weight="normal" text-decoration="none" x="324.5" y="1761.5">«interface»</text></g></g><g transform="translate(2,-310) scale(1,1)"><g><path fill="none" stroke="none"/><text fill="#a86bb5" stroke="none" font-family="Arial" font-size="13px" font-style="normal" font-weight="bold" text-decoration="none" x="266" y="1776.5">SDWebImageManagerDelegate</text></g></g><g transform="translate(2,-310) scale(1,1)"><g><path fill="none" stroke="none"/><text fill="#a86bb5" stroke="none" font-family="Arial" font-size="13px" font-style="normal" font-weight="normal" text-decoration="none" x="93" y="1799.5">+imageManager(imageManager, imageURL)</text></g></g><g transform="translate(2,-310) scale(1,1)"><g><path fill="none" stroke="none"/><text fill="#a86bb5" stroke="none" font-family="Arial" font-size="13px" font-style="normal" font-weight="normal" text-decoration="none" x="93" y="1814.5">+imageManager(SDWEbImagemanger, transferDowmloadedImage UIiamge, withURL nsurl)</text></g></g><g transform="translate(2,-310) scale(1,1)"><rect fill="#C0C0C0" stroke="none" x="783" y="1983" width="719" height="235" opacity="0.2"/></g><g transform="translate(2,-310) scale(1,1)"><rect fill="#ffffff" stroke="none" x="776" y="1976" width="719" height="235"/></g><g transform="translate(2,-310) scale(1,1)"><path fill="none" stroke="#c59bd3" d="M 776 1976 L 1495 1976 L 1495 2211 L 776 2211 L 776 1976 Z Z" stroke-miterlimit="10"/></g><g transform="translate(2,-310) scale(1,1)"><path fill="none" stroke="#c59bd3" d="M 776 2001 L 1495 2001" stroke-miterlimit="10"/></g><g transform="translate(2,-310) scale(1,1)"><path fill="none" stroke="#c59bd3" d="M 776 2069 L 1495 2069" stroke-miterlimit="10"/></g><g transform="translate(2,-310) scale(1,1)"><g><path fill="none" stroke="none"/><text fill="#a86bb5" stroke="none" font-family="Arial" font-size="13px" font-style="normal" font-weight="bold" text-decoration="none" x="1070.5" y="1995.5">SDWebImageManager</text></g></g><g transform="translate(2,-310) scale(1,1)"><g><path fill="none" stroke="none"/><text fill="#a86bb5" stroke="none" font-family="Arial" font-size="13px" font-style="normal" font-weight="normal" text-decoration="none" x="781" y="2018.5">+id SDWebImageManagerDelegate delegate</text></g></g><g transform="translate(2,-310) scale(1,1)"><g><path fill="none" stroke="none"/><text fill="#a86bb5" stroke="none" font-family="Arial" font-size="13px" font-style="normal" font-weight="normal" text-decoration="none" x="781" y="2033.5">+SDImageCache *imageCache</text></g></g><g transform="translate(2,-310) scale(1,1)"><g><path fill="none" stroke="none"/><text fill="#a86bb5" stroke="none" font-family="Arial" font-size="13px" font-style="normal" font-weight="normal" text-decoration="none" x="781" y="2048.5">+SDWebImageDownloader *imageDownloader</text></g></g><g transform="translate(2,-310) scale(1,1)"><g><path fill="none" stroke="none"/><text fill="#a86bb5" stroke="none" font-family="Arial" font-size="13px" font-style="normal" font-weight="normal" text-decoration="none" x="781" y="2063.5">+SDWebImageCacheKeyFilterBlock cacheKeyFilter</text></g></g><g transform="translate(2,-310) scale(1,1)"><g><path fill="none" stroke="none"/><text fill="#a86bb5" stroke="none" font-family="Arial" font-size="13px" font-style="normal" font-weight="normal" text-decoration="none" x="781" y="2086.5">+sharedManager()</text></g></g><g transform="translate(2,-310) scale(1,1)"><g><path fill="none" stroke="none"/><text fill="#a86bb5" stroke="none" font-family="Arial" font-size="13px" font-style="normal" font-weight="normal" text-decoration="none" x="781" y="2101.5">+initWithCache(SDimageCache, SDWebImageDownloader)</text></g></g><g transform="translate(2,-310) scale(1,1)"><g><path fill="none" stroke="none"/><text fill="#a86bb5" stroke="none" font-family="Arial" font-size="13px" font-style="normal" font-weight="normal" text-decoration="none" x="781" y="2116.5">+loadImageWithURL(NSURL, SDWebImageOptions, SDWebImageDownloaderProgressBlock, SDInternalCompletionBlock)</text></g></g><g transform="translate(2,-310) scale(1,1)"><g><path fill="none" stroke="none"/><text fill="#a86bb5" stroke="none" font-family="Arial" font-size="13px" font-style="normal" font-weight="normal" text-decoration="none" x="781" y="2131.5">+saveImageToCache(UIImage, ForUrl)</text></g></g><g transform="translate(2,-310) scale(1,1)"><g><path fill="none" stroke="none"/><text fill="#a86bb5" stroke="none" font-family="Arial" font-size="13px" font-style="normal" font-weight="normal" text-decoration="none" x="781" y="2146.5">+cancelAll()</text></g></g><g transform="translate(2,-310) scale(1,1)"><g><path fill="none" stroke="none"/><text fill="#a86bb5" stroke="none" font-family="Arial" font-size="13px" font-style="normal" font-weight="normal" text-decoration="none" x="781" y="2161.5">+isRunning()</text></g></g><g transform="translate(2,-310) scale(1,1)"><g><path fill="none" stroke="none"/><text fill="#a86bb5" stroke="none" font-family="Arial" font-size="13px" font-style="normal" font-weight="normal" text-decoration="none" x="781" y="2176.5">+cachedImageExistsForURL(url, SDWebImageCheckCacheCompletionBlock)</text></g></g><g transform="translate(2,-310) scale(1,1)"><g><path fill="none" stroke="none"/><text fill="#a86bb5" stroke="none" font-family="Arial" font-size="13px" font-style="normal" font-weight="normal" text-decoration="none" x="781" y="2191.5">+diskImageExistsForURL(NSURL)</text></g></g><g transform="translate(2,-310) scale(1,1)"><g><path fill="none" stroke="none"/><text fill="#a86bb5" stroke="none" font-family="Arial" font-size="13px" font-style="normal" font-weight="normal" text-decoration="none" x="781" y="2206.5">+cacheKeyForURL(NSURL)</text></g></g><g transform="translate(2,-310) scale(1,1)"><path fill="none" stroke="#c59bd3" d="M 792 1976 L 792 1803 M 792 1803 A 8 8 0 0 0 784 1795 L 625 1795" stroke-miterlimit="10" stroke-dasharray="3"/></g><g transform="translate(2,-310) scale(1,1)"><path fill="none" stroke="#c59bd3" d="M 635.1626748576241 1790.7904822439841 L 625 1795 L 635.1626748576241 1799.2095177560159" stroke-miterlimit="10"/></g><g transform="translate(2,-310) scale(1,1)"><g><path fill="none" stroke="none"/><text fill="#a86bb5" stroke="none" font-family="Arial" font-size="13px" font-style="normal" font-weight="normal" text-decoration="none" x="774" y="1817">+依赖</text></g></g><g transform="translate(2,-310) scale(1,1)"><path fill="none" stroke="#c59bd3" d="M 776 2093 L 783 2093 M 783 2093 A 8 8 0 0 1 775 2085 L 775 1649" stroke-miterlimit="10" stroke-dasharray="3"/></g><g transform="translate(2,-310) scale(1,1)"><path fill="none" stroke="#c59bd3" d="M 779.209517756016 1659.162674857624 L 775 1649 L 770.790482243984 1659.162674857624" stroke-miterlimit="10"/></g><g transform="translate(2,-310) scale(1,1)"><g><path fill="none" stroke="none"/><text fill="#a86bb5" stroke="none" font-family="Arial" font-size="13px" font-style="normal" font-weight="normal" text-decoration="none" x="743" y="2099">+依赖</text></g></g><g transform="translate(2,-310) scale(1,1)"><path fill="none" stroke="#c59bd3" d="M 1216 1476 L 1143 1476 M 1143 1476 A 8 8 0 0 1 1135 1468 L 1135 1448" stroke-miterlimit="10" stroke-dasharray="3"/></g><g transform="translate(2,-310) scale(1,1)"><path fill="none" stroke="#c59bd3" d="M 1139.2095177560159 1458.162674857624 L 1135 1448 L 1130.7904822439841 1458.162674857624" stroke-miterlimit="10"/></g><g transform="translate(2,-310) scale(1,1)"><g><path fill="none" stroke="none"/><text fill="#a86bb5" stroke="none" font-family="Arial" font-size="13px" font-style="normal" font-weight="normal" text-decoration="none" x="1103" y="1482">+依赖</text></g></g><g transform="translate(2,-310) scale(1,1)"><path fill="none" stroke="#c59bd3" d="M 1216 1976 L 1216 1811" stroke-miterlimit="10" stroke-dasharray="3"/></g><g transform="translate(2,-310) scale(1,1)"><path fill="none" stroke="#c59bd3" d="M 1220.2095177560159 1821.162674857624 L 1216 1811 L 1211.7904822439841 1821.162674857624" stroke-miterlimit="10"/></g><g transform="translate(2,-310) scale(1,1)"><g><path fill="none" stroke="none"/><text fill="#a86bb5" stroke="none" font-family="Arial" font-size="13px" font-style="normal" font-weight="normal" text-decoration="none" x="1184" y="1899">+依赖</text></g></g><g transform="translate(2,-310) scale(1,1)"><path fill="#ffffff" stroke="none" d="M 8 512 L 354 512 L 364 522 L 364 561 L 8 561 L 8 512"/></g><g transform="translate(2,-310) scale(1,1)"><path fill="none" stroke="#c59bd3" d="M 8 512 L 354 512 L 364 522 L 364 561 L 8 561 L 8 512 L 8 512" stroke-miterlimit="10"/></g><g transform="translate(2,-310) scale(1,1)"><path fill="none" stroke="#c59bd3" d="M 354 512 L 354 522 L 364 522 L 354 512" stroke-miterlimit="10"/></g><g transform="translate(2,-310) scale(1,1)"><g><path fill="none" stroke="none"/><text fill="#a86bb5" stroke="none" font-family="Arial" font-size="13px" font-style="normal" font-weight="normal" text-decoration="none" x="13" y="530">对外开放cancel 接口，用于取消-</text><text fill="#a86bb5" stroke="none" font-family="Arial" font-size="13px" font-style="normal" font-weight="normal" text-decoration="none" x="13" y="543">在依赖类中使用此接口，遵循接口隔离原则和里氏替换原则</text></g></g><g transform="translate(2,-310) scale(1,1)"><path fill="none" stroke="#c59bd3" d="M 265 724 L 327 724 M 327 724 A 8 8 0 0 0 335 716 L 335 562" stroke-miterlimit="10" stroke-dasharray="3"/></g></g></svg>